<svg width="52" height="51" viewBox="0 0 52 51" fill="none" xmlns="http://www.w3.org/2000/svg">
<path d="M25.5477 0L51.0955 51H0L25.5477 0Z" fill="#2D9A4B"/>
<g filter="url(#filter0_d_307_717)">
<path d="M35.5477 35C35.5477 40.5228 31.0706 45 25.5477 45C20.0249 45 15.5477 40.5228 15.5477 35C15.5477 29.4772 20.0249 25 25.5477 25C31.0706 25 35.5477 29.4772 35.5477 35Z" fill="url(#paint0_radial_307_717)"/>
</g>
<path d="M4.16924 37.592C3.93158 37.592 3.74758 37.5268 3.61724 37.3965C3.49458 37.2585 3.43324 37.0706 3.43324 36.833V30.14C3.43324 29.8946 3.49841 29.7106 3.62874 29.588C3.75908 29.4576 3.94308 29.3925 4.18074 29.3925H6.95224C7.84158 29.3925 8.52774 29.6071 9.01074 30.0365C9.49374 30.4581 9.73524 31.0523 9.73524 31.819C9.73524 32.3173 9.62408 32.7466 9.40174 33.107C9.18708 33.4673 8.87274 33.7433 8.45874 33.935C8.04474 34.1266 7.54258 34.2225 6.95224 34.2225L7.05574 34.05H7.43524C7.74958 34.05 8.02174 34.1266 8.25174 34.28C8.48941 34.4333 8.69641 34.6748 8.87274 35.0045L9.73524 36.603C9.82724 36.764 9.86941 36.9211 9.86174 37.0745C9.85408 37.2278 9.79658 37.3543 9.68924 37.454C9.58191 37.546 9.42474 37.592 9.21774 37.592C9.01074 37.592 8.84208 37.5498 8.71174 37.4655C8.58141 37.3735 8.46641 37.2355 8.36674 37.0515L7.20524 34.9125C7.06724 34.6518 6.90241 34.4793 6.71074 34.395C6.52674 34.303 6.28908 34.257 5.99774 34.257H4.90524V36.833C4.90524 37.0706 4.84391 37.2585 4.72124 37.3965C4.59858 37.5268 4.41458 37.592 4.16924 37.592ZM4.90524 33.1645H6.69924C7.22824 33.1645 7.62691 33.0571 7.89524 32.8425C8.17124 32.6201 8.30924 32.2905 8.30924 31.8535C8.30924 31.4241 8.17124 31.1021 7.89524 30.8875C7.62691 30.6651 7.22824 30.554 6.69924 30.554H4.90524V33.1645Z" fill="black"/>
<path d="M12.9744 37.615C12.568 37.615 12.2039 37.5383 11.8819 37.385C11.5675 37.224 11.3184 37.0093 11.1344 36.741C10.958 36.4726 10.8699 36.1698 10.8699 35.8325C10.8699 35.4185 10.9772 35.0926 11.1919 34.855C11.4065 34.6096 11.7554 34.4333 12.2384 34.326C12.7214 34.2186 13.3692 34.165 14.1819 34.165H14.7569V34.993H14.1934C13.718 34.993 13.3385 35.016 13.0549 35.062C12.7712 35.108 12.568 35.1885 12.4454 35.3035C12.3304 35.4108 12.2729 35.5641 12.2729 35.7635C12.2729 36.0165 12.361 36.2235 12.5374 36.3845C12.7137 36.5455 12.959 36.626 13.2734 36.626C13.5264 36.626 13.7487 36.5685 13.9404 36.4535C14.1397 36.3308 14.2969 36.166 14.4119 35.959C14.5269 35.752 14.5844 35.5143 14.5844 35.246V33.9235C14.5844 33.5401 14.5 33.2641 14.3314 33.0955C14.1627 32.9268 13.879 32.8425 13.4804 32.8425C13.258 32.8425 13.0165 32.8693 12.7559 32.923C12.5029 32.9766 12.2345 33.0686 11.9509 33.199C11.8052 33.268 11.6749 33.2871 11.5599 33.2565C11.4525 33.2258 11.3682 33.1645 11.3069 33.0725C11.2455 32.9728 11.2149 32.8655 11.2149 32.7505C11.2149 32.6355 11.2455 32.5243 11.3069 32.417C11.3682 32.302 11.4717 32.2176 11.6174 32.164C11.97 32.0183 12.3074 31.9148 12.6294 31.8535C12.959 31.7921 13.258 31.7615 13.5264 31.7615C14.0784 31.7615 14.5307 31.8458 14.8834 32.0145C15.2437 32.1831 15.512 32.44 15.6884 32.785C15.8647 33.1223 15.9529 33.5593 15.9529 34.096V36.856C15.9529 37.0936 15.8954 37.2776 15.7804 37.408C15.6654 37.5306 15.5005 37.592 15.2859 37.592C15.0712 37.592 14.9025 37.5306 14.7799 37.408C14.6649 37.2776 14.6074 37.0936 14.6074 36.856V36.304H14.6994C14.6457 36.5723 14.5384 36.8061 14.3774 37.0055C14.224 37.1971 14.0285 37.3466 13.7909 37.454C13.5532 37.5613 13.281 37.615 12.9744 37.615Z" fill="black"/>
<path d="M18.1479 37.592C17.9179 37.592 17.7416 37.5306 17.6189 37.408C17.4963 37.2776 17.4349 37.0936 17.4349 36.856V32.509C17.4349 32.2713 17.4963 32.0911 17.6189 31.9685C17.7416 31.8458 17.9141 31.7845 18.1364 31.7845C18.3588 31.7845 18.5313 31.8458 18.6539 31.9685C18.7766 32.0911 18.8379 32.2713 18.8379 32.509V33.3485L18.7114 33.0035C18.8648 32.6201 19.1024 32.3173 19.4244 32.095C19.7464 31.8726 20.1298 31.7615 20.5744 31.7615C21.0268 31.7615 21.3986 31.8688 21.6899 32.0835C21.9813 32.2981 22.1844 32.6278 22.2994 33.0725H22.1384C22.2918 32.6661 22.5448 32.348 22.8974 32.118C23.2501 31.8803 23.6564 31.7615 24.1164 31.7615C24.5458 31.7615 24.8984 31.8458 25.1744 32.0145C25.4581 32.1831 25.6689 32.44 25.8069 32.785C25.9449 33.1223 26.0139 33.5516 26.0139 34.073V36.856C26.0139 37.0936 25.9488 37.2776 25.8184 37.408C25.6958 37.5306 25.5194 37.592 25.2894 37.592C25.0594 37.592 24.8831 37.5306 24.7604 37.408C24.6378 37.2776 24.5764 37.0936 24.5764 36.856V34.1305C24.5764 33.7011 24.5036 33.3868 24.3579 33.1875C24.2199 32.9881 23.9823 32.8885 23.6449 32.8885C23.2693 32.8885 22.9741 33.0226 22.7594 33.291C22.5448 33.5516 22.4374 33.9158 22.4374 34.3835V36.856C22.4374 37.0936 22.3761 37.2776 22.2534 37.408C22.1308 37.5306 21.9544 37.592 21.7244 37.592C21.4944 37.592 21.3143 37.5306 21.1839 37.408C21.0613 37.2776 20.9999 37.0936 20.9999 36.856V34.1305C20.9999 33.7011 20.9271 33.3868 20.7814 33.1875C20.6434 32.9881 20.4096 32.8885 20.0799 32.8885C19.7043 32.8885 19.4091 33.0226 19.1944 33.291C18.9798 33.5516 18.8724 33.9158 18.8724 34.3835V36.856C18.8724 37.3466 18.6309 37.592 18.1479 37.592Z" fill="black"/>
<path d="M30.2684 37.615C29.6321 37.615 29.0839 37.4961 28.6239 37.2585C28.1639 37.0208 27.8074 36.6835 27.5544 36.2465C27.3091 35.8095 27.1864 35.292 27.1864 34.694C27.1864 34.1113 27.3052 33.6015 27.5429 33.1645C27.7882 32.7275 28.1217 32.3863 28.5434 32.141C28.9727 31.888 29.4596 31.7615 30.0039 31.7615C30.4026 31.7615 30.7591 31.8266 31.0734 31.957C31.3954 32.0873 31.6676 32.2751 31.8899 32.5205C32.1199 32.7658 32.2924 33.0648 32.4074 33.4175C32.5301 33.7625 32.5914 34.1535 32.5914 34.5905C32.5914 34.7285 32.5416 34.8358 32.4419 34.9125C32.3499 34.9815 32.2157 35.016 32.0394 35.016H28.3479V34.188H31.5794L31.3954 34.3605C31.3954 34.0078 31.3417 33.7126 31.2344 33.475C31.1347 33.2373 30.9852 33.0571 30.7859 32.9345C30.5942 32.8041 30.3527 32.739 30.0614 32.739C29.7394 32.739 29.4634 32.8156 29.2334 32.969C29.0111 33.1146 28.8386 33.3255 28.7159 33.6015C28.6009 33.8698 28.5434 34.1918 28.5434 34.5675V34.648C28.5434 35.2766 28.6891 35.7481 28.9804 36.0625C29.2794 36.3691 29.7164 36.5225 30.2914 36.5225C30.4907 36.5225 30.7131 36.4995 30.9584 36.4535C31.2114 36.3998 31.4491 36.3116 31.6714 36.189C31.8324 36.097 31.9742 36.0586 32.0969 36.074C32.2196 36.0816 32.3154 36.1238 32.3844 36.2005C32.4611 36.2771 32.5071 36.373 32.5224 36.488C32.5377 36.5953 32.5147 36.7065 32.4534 36.8215C32.3997 36.9365 32.3039 37.0361 32.1659 37.1205C31.8976 37.2891 31.5871 37.4156 31.2344 37.5C30.8894 37.5766 30.5674 37.615 30.2684 37.615Z" fill="black"/>
<path d="M36.2834 37.615C35.785 37.615 35.3672 37.5306 35.0299 37.362C34.7002 37.1933 34.4549 36.948 34.2939 36.626C34.1329 36.2963 34.0524 35.89 34.0524 35.407V32.9575H33.4544C33.2704 32.9575 33.1285 32.9115 33.0289 32.8195C32.9292 32.7198 32.8794 32.5856 32.8794 32.417C32.8794 32.2406 32.9292 32.1065 33.0289 32.0145C33.1285 31.9225 33.2704 31.8765 33.4544 31.8765H34.0524V30.83C34.0524 30.5923 34.1137 30.4121 34.2364 30.2895C34.3667 30.1668 34.5469 30.1055 34.7769 30.1055C35.0069 30.1055 35.1832 30.1668 35.3059 30.2895C35.4285 30.4121 35.4899 30.5923 35.4899 30.83V31.8765H36.7089C36.8929 31.8765 37.0347 31.9225 37.1344 32.0145C37.234 32.1065 37.2839 32.2406 37.2839 32.417C37.2839 32.5856 37.234 32.7198 37.1344 32.8195C37.0347 32.9115 36.8929 32.9575 36.7089 32.9575H35.4899V35.3265C35.4899 35.6945 35.5704 35.9705 35.7314 36.1545C35.8924 36.3385 36.153 36.4305 36.5134 36.4305C36.6437 36.4305 36.7587 36.419 36.8584 36.396C36.958 36.373 37.0462 36.3576 37.1229 36.35C37.2149 36.3423 37.2915 36.373 37.3529 36.442C37.4142 36.5033 37.4449 36.6336 37.4449 36.833C37.4449 36.9863 37.418 37.1243 37.3644 37.247C37.3184 37.362 37.2302 37.4425 37.0999 37.4885C37.0002 37.5191 36.8699 37.546 36.7089 37.569C36.5479 37.5996 36.406 37.615 36.2834 37.615Z" fill="black"/>
<path d="M40.3712 37.615C39.8729 37.615 39.4551 37.5306 39.1177 37.362C38.7881 37.1933 38.5427 36.948 38.3817 36.626C38.2207 36.2963 38.1402 35.89 38.1402 35.407V32.9575H37.5422C37.3582 32.9575 37.2164 32.9115 37.1167 32.8195C37.0171 32.7198 36.9672 32.5856 36.9672 32.417C36.9672 32.2406 37.0171 32.1065 37.1167 32.0145C37.2164 31.9225 37.3582 31.8765 37.5422 31.8765H38.1402V30.83C38.1402 30.5923 38.2016 30.4121 38.3242 30.2895C38.4546 30.1668 38.6347 30.1055 38.8647 30.1055C39.0947 30.1055 39.2711 30.1668 39.3937 30.2895C39.5164 30.4121 39.5777 30.5923 39.5777 30.83V31.8765H40.7967C40.9807 31.8765 41.1226 31.9225 41.2222 32.0145C41.3219 32.1065 41.3717 32.2406 41.3717 32.417C41.3717 32.5856 41.3219 32.7198 41.2222 32.8195C41.1226 32.9115 40.9807 32.9575 40.7967 32.9575H39.5777V35.3265C39.5777 35.6945 39.6582 35.9705 39.8192 36.1545C39.9802 36.3385 40.2409 36.4305 40.6012 36.4305C40.7316 36.4305 40.8466 36.419 40.9462 36.396C41.0459 36.373 41.1341 36.3576 41.2107 36.35C41.3027 36.3423 41.3794 36.373 41.4407 36.442C41.5021 36.5033 41.5327 36.6336 41.5327 36.833C41.5327 36.9863 41.5059 37.1243 41.4522 37.247C41.4062 37.362 41.3181 37.4425 41.1877 37.4885C41.0881 37.5191 40.9577 37.546 40.7967 37.569C40.6357 37.5996 40.4939 37.615 40.3712 37.615Z" fill="black"/>
<path d="M44.9242 37.615C44.2878 37.615 43.7397 37.4961 43.2797 37.2585C42.8197 37.0208 42.4632 36.6835 42.2102 36.2465C41.9648 35.8095 41.8422 35.292 41.8422 34.694C41.8422 34.1113 41.961 33.6015 42.1987 33.1645C42.444 32.7275 42.7775 32.3863 43.1992 32.141C43.6285 31.888 44.1153 31.7615 44.6597 31.7615C45.0583 31.7615 45.4148 31.8266 45.7292 31.957C46.0512 32.0873 46.3233 32.2751 46.5457 32.5205C46.7757 32.7658 46.9482 33.0648 47.0632 33.4175C47.1858 33.7625 47.2472 34.1535 47.2472 34.5905C47.2472 34.7285 47.1973 34.8358 47.0977 34.9125C47.0057 34.9815 46.8715 35.016 46.6952 35.016H43.0037V34.188H46.2352L46.0512 34.3605C46.0512 34.0078 45.9975 33.7126 45.8902 33.475C45.7905 33.2373 45.641 33.0571 45.4417 32.9345C45.25 32.8041 45.0085 32.739 44.7172 32.739C44.3952 32.739 44.1192 32.8156 43.8892 32.969C43.6668 33.1146 43.4943 33.3255 43.3717 33.6015C43.2567 33.8698 43.1992 34.1918 43.1992 34.5675V34.648C43.1992 35.2766 43.3448 35.7481 43.6362 36.0625C43.9352 36.3691 44.3722 36.5225 44.9472 36.5225C45.1465 36.5225 45.3688 36.4995 45.6142 36.4535C45.8672 36.3998 46.1048 36.3116 46.3272 36.189C46.4882 36.097 46.63 36.0586 46.7527 36.074C46.8753 36.0816 46.9712 36.1238 47.0402 36.2005C47.1168 36.2771 47.1628 36.373 47.1782 36.488C47.1935 36.5953 47.1705 36.7065 47.1092 36.8215C47.0555 36.9365 46.9597 37.0361 46.8217 37.1205C46.5533 37.2891 46.2428 37.4156 45.8902 37.5C45.5452 37.5766 45.2232 37.615 44.9242 37.615Z" fill="black"/>
<defs>
<filter id="filter0_d_307_717" x="9.54774" y="21" width="30" height="30" filterUnits="userSpaceOnUse" color-interpolation-filters="sRGB">
<feFlood flood-opacity="0" result="BackgroundImageFix"/>
<feColorMatrix in="SourceAlpha" type="matrix" values="0 0 0 0 0 0 0 0 0 0 0 0 0 0 0 0 0 0 127 0" result="hardAlpha"/>
<feOffset dx="-1" dy="1"/>
<feGaussianBlur stdDeviation="2.5"/>
<feComposite in2="hardAlpha" operator="out"/>
<feColorMatrix type="matrix" values="0 0 0 0 0 0 0 0 0 0 0 0 0 0 0 0 0 0 0.25 0"/>
<feBlend mode="normal" in2="BackgroundImageFix" result="effect1_dropShadow_307_717"/>
<feBlend mode="normal" in="SourceGraphic" in2="effect1_dropShadow_307_717" result="shape"/>
</filter>
<radialGradient id="paint0_radial_307_717" cx="0" cy="0" r="1" gradientUnits="userSpaceOnUse" gradientTransform="translate(28.4889 31.7647) rotate(130.601) scale(10.8465)">
<stop stop-color="#FFE600"/>
<stop offset="0.359375" stop-color="#FFB800"/>
<stop offset="1" stop-color="#FD6F20"/>
</radialGradient>
</defs>
</svg>
